<mxfile host="app.diagrams.net" agent="Mozilla/5.0 (Windows NT 10.0; Win64; x64) AppleWebKit/537.36 (KHTML, like Gecko) Chrome/116.0.0.0 Safari/537.36" locked="true" version="26.0.10">
  <diagram name="Page-1" id="ad52d381-51e7-2e0d-a935-2d0ddd2fd229">
    <mxGraphModel grid="1" page="1" gridSize="10" guides="1" tooltips="0" connect="1" arrows="1" fold="1" pageScale="1" pageWidth="1100" pageHeight="850" background="none" math="0" shadow="0">
      <root>
        <mxCell id="0" />
        <mxCell id="1" parent="0" />
        <mxCell id="onqhrKJT73XVAQYC2L4G-7" value="" style="shape=ext;double=1;rounded=0;whiteSpace=wrap;html=1;" vertex="1" parent="1">
          <mxGeometry x="1130" y="610" width="490" height="740" as="geometry" />
        </mxCell>
        <mxCell id="2c924340bb9dbf6c-1" value="&lt;span&gt;Infinite Scroll Text/Image/Vid Feeds&lt;/span&gt;" style="whiteSpace=wrap;html=1;rounded=0;shadow=1;comic=0;labelBackgroundColor=none;strokeWidth=2;fontFamily=Verdana;fontSize=12;align=center;arcSize=50;fillColor=#dae8fc;strokeColor=#6c8ebf;" vertex="1" parent="1">
          <mxGeometry x="-180" y="-640" width="200" height="50" as="geometry" />
        </mxCell>
        <mxCell id="2c924340bb9dbf6c-4" value="User HOSTED&lt;br&gt;App&lt;br&gt;Manages entire Subdomain&lt;div&gt;&lt;br&gt;&lt;/div&gt;&lt;div&gt;posts via API not Transfers&lt;/div&gt;" style="ellipse;whiteSpace=wrap;html=1;rounded=1;shadow=1;comic=0;labelBackgroundColor=none;strokeWidth=2;fontFamily=Verdana;fontSize=12;align=center;fillColor=#dae8fc;strokeColor=#6c8ebf;" vertex="1" parent="1">
          <mxGeometry x="130" y="-200" width="120" height="200" as="geometry" />
        </mxCell>
        <mxCell id="2c924340bb9dbf6c-5" value="Utilize DNS for a true Open &amp;amp; Portable social" style="ellipse;whiteSpace=wrap;html=1;rounded=1;shadow=1;comic=0;labelBackgroundColor=none;strokeWidth=2;fontFamily=Verdana;fontSize=12;align=center;" vertex="1" parent="1">
          <mxGeometry x="400" y="825" width="120" height="80" as="geometry" />
        </mxCell>
        <mxCell id="2c924340bb9dbf6c-6" value="TO DO/Decisions" style="ellipse;whiteSpace=wrap;html=1;rounded=1;shadow=1;comic=0;labelBackgroundColor=none;strokeWidth=2;fontFamily=Verdana;fontSize=19;align=center;fontStyle=1" vertex="1" parent="1">
          <mxGeometry x="640" y="800" width="310" height="230" as="geometry" />
        </mxCell>
        <mxCell id="2c924340bb9dbf6c-7" value="" style="ellipse;whiteSpace=wrap;html=1;rounded=1;shadow=1;comic=0;labelBackgroundColor=none;strokeWidth=2;fontFamily=Verdana;fontSize=12;align=center;" vertex="1" parent="1">
          <mxGeometry x="1340" y="650" width="120" height="80" as="geometry" />
        </mxCell>
        <mxCell id="2c924340bb9dbf6c-8" value="&lt;span&gt;Selectable/&lt;br&gt;Customizable&lt;/span&gt;" style="whiteSpace=wrap;html=1;rounded=0;shadow=1;comic=0;labelBackgroundColor=none;strokeWidth=2;fontFamily=Verdana;fontSize=12;align=center;arcSize=50;fillColor=#dae8fc;strokeColor=#6c8ebf;" vertex="1" parent="1">
          <mxGeometry x="-190" y="-560" width="100" height="130" as="geometry" />
        </mxCell>
        <mxCell id="2c924340bb9dbf6c-9" value="&lt;span&gt;T&lt;/span&gt;" style="whiteSpace=wrap;html=1;rounded=0;shadow=1;comic=0;labelBackgroundColor=none;strokeWidth=2;fontFamily=Verdana;fontSize=12;align=center;arcSize=50;" vertex="1" parent="1">
          <mxGeometry x="290" y="-570" width="100" height="20" as="geometry" />
        </mxCell>
        <mxCell id="2c924340bb9dbf6c-10" value="&lt;span&gt;built in URL shortener (allow user direct access as well?)&amp;nbsp;&lt;/span&gt;&lt;div&gt;&lt;span&gt;&lt;br&gt;&lt;/span&gt;&lt;/div&gt;" style="whiteSpace=wrap;html=1;rounded=0;shadow=1;comic=0;labelBackgroundColor=none;strokeWidth=2;fontFamily=Verdana;fontSize=12;align=center;arcSize=50;fillColor=#dae8fc;strokeColor=#6c8ebf;" vertex="1" parent="1">
          <mxGeometry x="195" y="-740" width="125" height="120" as="geometry" />
        </mxCell>
        <mxCell id="2c924340bb9dbf6c-12" value="&lt;span&gt;Develop key Sharing tech&lt;br&gt;should be physical &amp;amp; virtually shareable&lt;/span&gt;" style="whiteSpace=wrap;html=1;rounded=1;shadow=1;comic=0;labelBackgroundColor=none;strokeWidth=2;fontFamily=Verdana;fontSize=12;align=center;arcSize=50;" vertex="1" parent="1">
          <mxGeometry x="370" y="960" width="220" height="70" as="geometry" />
        </mxCell>
        <mxCell id="2c924340bb9dbf6c-22" value="&lt;span&gt;Define Json Structure for DNS&lt;/span&gt;" style="whiteSpace=wrap;html=1;rounded=1;shadow=1;comic=0;labelBackgroundColor=none;strokeWidth=2;fontFamily=Verdana;fontSize=12;align=center;arcSize=50;" vertex="1" parent="1">
          <mxGeometry x="430" y="740" width="180" height="50" as="geometry" />
        </mxCell>
        <mxCell id="2c924340bb9dbf6c-23" value="" style="whiteSpace=wrap;html=1;rounded=1;shadow=1;comic=0;labelBackgroundColor=none;strokeWidth=2;fontFamily=Verdana;fontSize=12;align=center;arcSize=50;" vertex="1" parent="1">
          <mxGeometry x="1160" y="1200" width="100" height="40" as="geometry" />
        </mxCell>
        <mxCell id="2c924340bb9dbf6c-24" value="" style="rhombus;whiteSpace=wrap;html=1;rounded=0;shadow=1;comic=0;labelBackgroundColor=none;strokeWidth=2;fontFamily=Verdana;fontSize=12;align=center;" vertex="1" parent="1">
          <mxGeometry x="1170" y="1060" width="80" height="80" as="geometry" />
        </mxCell>
        <mxCell id="2c924340bb9dbf6c-25" value="" style="rounded=1;whiteSpace=wrap;html=1;shadow=1;comic=0;labelBackgroundColor=none;strokeWidth=2;fontFamily=Verdana;fontSize=12;align=center;" vertex="1" parent="1">
          <mxGeometry x="1150" y="910" width="120" height="60" as="geometry" />
        </mxCell>
        <mxCell id="2c924340bb9dbf6c-26" value="" style="rounded=1;whiteSpace=wrap;html=1;shadow=1;comic=0;labelBackgroundColor=none;strokeWidth=2;fontFamily=Verdana;fontSize=12;align=center;" vertex="1" parent="1">
          <mxGeometry x="1150" y="765" width="120" height="60" as="geometry" />
        </mxCell>
        <mxCell id="2c924340bb9dbf6c-27" value="" style="edgeStyle=none;rounded=1;html=1;labelBackgroundColor=none;startArrow=none;startFill=0;startSize=5;endArrow=classicThin;endFill=1;endSize=5;jettySize=auto;orthogonalLoop=1;strokeColor=#B3B3B3;strokeWidth=1;fontFamily=Verdana;fontSize=12;exitX=0.648;exitY=0;exitDx=0;exitDy=0;exitPerimeter=0;" edge="1" parent="1" source="2c924340bb9dbf6c-2" target="2c924340bb9dbf6c-10">
          <mxGeometry relative="1" as="geometry" />
        </mxCell>
        <mxCell id="2c924340bb9dbf6c-28" value="" style="edgeStyle=none;rounded=1;html=1;labelBackgroundColor=none;startArrow=none;startFill=0;startSize=5;endArrow=classicThin;endFill=1;endSize=5;jettySize=auto;orthogonalLoop=1;strokeColor=#B3B3B3;strokeWidth=1;fontFamily=Verdana;fontSize=12;exitX=0.205;exitY=0.089;exitDx=0;exitDy=0;exitPerimeter=0;" edge="1" parent="1" source="2c924340bb9dbf6c-2" target="2c924340bb9dbf6c-1">
          <mxGeometry relative="1" as="geometry" />
        </mxCell>
        <mxCell id="2c924340bb9dbf6c-29" value="" style="edgeStyle=none;rounded=1;html=1;labelBackgroundColor=none;startArrow=none;startFill=0;startSize=5;endArrow=classicThin;endFill=1;endSize=5;jettySize=auto;orthogonalLoop=1;strokeColor=#B3B3B3;strokeWidth=1;fontFamily=Verdana;fontSize=12;exitX=0.065;exitY=0.289;exitDx=0;exitDy=0;exitPerimeter=0;entryX=1;entryY=1;entryDx=0;entryDy=0;" edge="1" parent="1" source="2c924340bb9dbf6c-2" target="2c924340bb9dbf6c-8">
          <mxGeometry relative="1" as="geometry">
            <mxPoint x="-10" y="-370" as="targetPoint" />
          </mxGeometry>
        </mxCell>
        <mxCell id="2c924340bb9dbf6c-30" value="" style="edgeStyle=none;rounded=1;html=1;labelBackgroundColor=none;startArrow=none;startFill=0;startSize=5;endArrow=classicThin;endFill=1;endSize=5;jettySize=auto;orthogonalLoop=1;strokeColor=#B3B3B3;strokeWidth=1;fontFamily=Verdana;fontSize=12;exitX=0.779;exitY=0.093;exitDx=0;exitDy=0;exitPerimeter=0;" edge="1" parent="1" source="2c924340bb9dbf6c-2" target="2c924340bb9dbf6c-9">
          <mxGeometry relative="1" as="geometry" />
        </mxCell>
        <mxCell id="2c924340bb9dbf6c-31" value="" style="edgeStyle=none;rounded=1;html=1;labelBackgroundColor=none;startArrow=none;startFill=0;startSize=5;endArrow=classicThin;endFill=1;endSize=5;jettySize=auto;orthogonalLoop=1;strokeColor=#B3B3B3;strokeWidth=1;fontFamily=Verdana;fontSize=12" edge="1" parent="1" source="2c924340bb9dbf6c-4" target="2c924340bb9dbf6c-2">
          <mxGeometry relative="1" as="geometry" />
        </mxCell>
        <mxCell id="2c924340bb9dbf6c-32" value="" style="edgeStyle=none;rounded=1;html=1;labelBackgroundColor=none;startArrow=none;startFill=0;startSize=5;endArrow=none;endFill=1;endSize=5;jettySize=auto;orthogonalLoop=1;strokeColor=#B3B3B3;strokeWidth=1;fontFamily=Verdana;fontSize=16;exitX=0;exitY=0.5;exitDx=0;exitDy=0;entryX=0.96;entryY=0.336;entryDx=0;entryDy=0;entryPerimeter=0;" edge="1" parent="1" source="onqhrKJT73XVAQYC2L4G-25" target="2c924340bb9dbf6c-3">
          <mxGeometry relative="1" as="geometry">
            <mxPoint x="289.28" y="321.68" as="targetPoint" />
            <mxPoint x="390" y="430" as="sourcePoint" />
          </mxGeometry>
        </mxCell>
        <mxCell id="2c924340bb9dbf6c-47" value="" style="edgeStyle=none;rounded=1;html=1;labelBackgroundColor=none;startArrow=none;startFill=0;startSize=5;endArrow=classicThin;endFill=1;endSize=5;jettySize=auto;orthogonalLoop=1;strokeColor=#B3B3B3;strokeWidth=1;fontFamily=Verdana;fontSize=12;" edge="1" parent="1" source="2c924340bb9dbf6c-59" target="2c924340bb9dbf6c-26">
          <mxGeometry relative="1" as="geometry" />
        </mxCell>
        <mxCell id="2c924340bb9dbf6c-48" value="" style="edgeStyle=none;rounded=1;html=1;labelBackgroundColor=none;startArrow=none;startFill=0;startSize=5;endArrow=classicThin;endFill=1;endSize=5;jettySize=auto;orthogonalLoop=1;strokeColor=#B3B3B3;strokeWidth=1;fontFamily=Verdana;fontSize=12" edge="1" parent="1" source="2c924340bb9dbf6c-26" target="2c924340bb9dbf6c-25">
          <mxGeometry relative="1" as="geometry" />
        </mxCell>
        <mxCell id="2c924340bb9dbf6c-49" value="" style="edgeStyle=none;rounded=1;html=1;labelBackgroundColor=none;startArrow=none;startFill=0;startSize=5;endArrow=classicThin;endFill=1;endSize=5;jettySize=auto;orthogonalLoop=1;strokeColor=#B3B3B3;strokeWidth=1;fontFamily=Verdana;fontSize=12" edge="1" parent="1" source="2c924340bb9dbf6c-25" target="2c924340bb9dbf6c-24">
          <mxGeometry relative="1" as="geometry" />
        </mxCell>
        <mxCell id="2c924340bb9dbf6c-50" value="Yes" style="edgeStyle=none;rounded=1;html=1;labelBackgroundColor=none;startArrow=none;startFill=0;startSize=5;endArrow=classicThin;endFill=1;endSize=5;jettySize=auto;orthogonalLoop=1;strokeColor=#B3B3B3;strokeWidth=1;fontFamily=Verdana;fontSize=12" edge="1" parent="1" source="2c924340bb9dbf6c-24" target="2c924340bb9dbf6c-23">
          <mxGeometry x="-0.7935" y="10" relative="1" as="geometry">
            <mxPoint as="offset" />
          </mxGeometry>
        </mxCell>
        <mxCell id="2c924340bb9dbf6c-55" value="&lt;span&gt;Native Safe &amp;amp; encrypted File Transfer with Friends?&amp;nbsp;&lt;/span&gt;" style="whiteSpace=wrap;html=1;rounded=0;shadow=1;comic=0;labelBackgroundColor=none;strokeWidth=2;fontFamily=Verdana;fontSize=12;align=center;arcSize=50;fillColor=#dae8fc;strokeColor=#6c8ebf;" vertex="1" parent="1">
          <mxGeometry x="-10" y="-750" width="180" height="90" as="geometry" />
        </mxCell>
        <mxCell id="2c924340bb9dbf6c-56" value="Parent features? Possible via chaining?&amp;nbsp;&amp;nbsp;" style="whiteSpace=wrap;html=1;rounded=0;shadow=1;comic=0;labelBackgroundColor=none;strokeWidth=2;fontFamily=Verdana;fontSize=12;align=center;arcSize=50;" vertex="1" parent="1">
          <mxGeometry x="460" y="-523.27" width="100" height="210" as="geometry" />
        </mxCell>
        <mxCell id="2c924340bb9dbf6c-59" value="" style="whiteSpace=wrap;html=1;rounded=1;shadow=1;comic=0;labelBackgroundColor=none;strokeWidth=2;fontFamily=Verdana;fontSize=12;align=center;arcSize=50;" vertex="1" parent="1">
          <mxGeometry x="1160" y="680" width="100" height="20" as="geometry" />
        </mxCell>
        <mxCell id="2c924340bb9dbf6c-61" value="" style="edgeStyle=none;rounded=1;html=1;labelBackgroundColor=none;startArrow=none;startFill=0;startSize=5;endArrow=classicThin;endFill=1;endSize=5;jettySize=auto;orthogonalLoop=1;strokeColor=#B3B3B3;strokeWidth=1;fontFamily=Verdana;fontSize=12;" edge="1" parent="1" source="2c924340bb9dbf6c-2" target="2c924340bb9dbf6c-55">
          <mxGeometry relative="1" as="geometry">
            <mxPoint x="150" y="-360" as="sourcePoint" />
          </mxGeometry>
        </mxCell>
        <mxCell id="2c924340bb9dbf6c-62" value="" style="edgeStyle=none;rounded=1;html=1;labelBackgroundColor=none;startArrow=none;startFill=0;startSize=5;endArrow=classicThin;endFill=1;endSize=5;jettySize=auto;orthogonalLoop=1;strokeColor=#B3B3B3;strokeWidth=1;fontFamily=Verdana;fontSize=12;exitX=0.908;exitY=0.209;exitDx=0;exitDy=0;exitPerimeter=0;" edge="1" parent="1" source="2c924340bb9dbf6c-2" target="2c924340bb9dbf6c-56">
          <mxGeometry relative="1" as="geometry" />
        </mxCell>
        <mxCell id="2c924340bb9dbf6c-67" value="" style="ellipse;whiteSpace=wrap;html=1;rounded=1;shadow=1;comic=0;labelBackgroundColor=none;strokeWidth=2;fontFamily=Verdana;fontSize=12;align=center;" vertex="1" parent="1">
          <mxGeometry x="1340" y="1060" width="120" height="80" as="geometry" />
        </mxCell>
        <mxCell id="2c924340bb9dbf6c-68" value="" style="whiteSpace=wrap;html=1;rounded=1;shadow=1;comic=0;labelBackgroundColor=none;strokeWidth=2;fontFamily=Verdana;fontSize=12;align=center;arcSize=50;" vertex="1" parent="1">
          <mxGeometry x="1460" y="1230" width="100" height="20" as="geometry" />
        </mxCell>
        <mxCell id="2c924340bb9dbf6c-69" value="" style="whiteSpace=wrap;html=1;rounded=1;shadow=1;comic=0;labelBackgroundColor=none;strokeWidth=2;fontFamily=Verdana;fontSize=12;align=center;arcSize=50;" vertex="1" parent="1">
          <mxGeometry x="1200" y="1270" width="100" height="20" as="geometry" />
        </mxCell>
        <mxCell id="2c924340bb9dbf6c-70" value="" style="whiteSpace=wrap;html=1;rounded=1;shadow=1;comic=0;labelBackgroundColor=none;strokeWidth=2;fontFamily=Verdana;fontSize=12;align=center;arcSize=50;" vertex="1" parent="1">
          <mxGeometry x="1320" y="1240" width="100" height="20" as="geometry" />
        </mxCell>
        <mxCell id="2c924340bb9dbf6c-72" value="" style="edgeStyle=none;rounded=1;html=1;labelBackgroundColor=none;startArrow=none;startFill=0;startSize=5;endArrow=classicThin;endFill=1;endSize=5;jettySize=auto;orthogonalLoop=1;strokeColor=#B3B3B3;strokeWidth=1;fontFamily=Verdana;fontSize=12" edge="1" parent="1" source="2c924340bb9dbf6c-67" target="2c924340bb9dbf6c-70">
          <mxGeometry relative="1" as="geometry" />
        </mxCell>
        <mxCell id="2c924340bb9dbf6c-73" value="" style="edgeStyle=none;rounded=1;html=1;labelBackgroundColor=none;startArrow=none;startFill=0;startSize=5;endArrow=classicThin;endFill=1;endSize=5;jettySize=auto;orthogonalLoop=1;strokeColor=#B3B3B3;strokeWidth=1;fontFamily=Verdana;fontSize=12" edge="1" parent="1" source="2c924340bb9dbf6c-67" target="2c924340bb9dbf6c-69">
          <mxGeometry relative="1" as="geometry" />
        </mxCell>
        <mxCell id="2c924340bb9dbf6c-74" value="" style="edgeStyle=none;rounded=1;html=1;labelBackgroundColor=none;startArrow=none;startFill=0;startSize=5;endArrow=classicThin;endFill=1;endSize=5;jettySize=auto;orthogonalLoop=1;strokeColor=#B3B3B3;strokeWidth=1;fontFamily=Verdana;fontSize=12" edge="1" parent="1" source="2c924340bb9dbf6c-67" target="2c924340bb9dbf6c-68">
          <mxGeometry relative="1" as="geometry" />
        </mxCell>
        <mxCell id="2c924340bb9dbf6c-75" value="No" style="edgeStyle=none;rounded=1;html=1;labelBackgroundColor=none;startArrow=none;startFill=0;startSize=5;endArrow=classicThin;endFill=1;endSize=5;jettySize=auto;orthogonalLoop=1;strokeColor=#B3B3B3;strokeWidth=1;fontFamily=Verdana;fontSize=12" edge="1" parent="1" source="2c924340bb9dbf6c-24" target="2c924340bb9dbf6c-67">
          <mxGeometry x="-0.504" y="20" relative="1" as="geometry">
            <mxPoint as="offset" />
          </mxGeometry>
        </mxCell>
        <mxCell id="2c924340bb9dbf6c-76" value="" style="edgeStyle=none;rounded=1;html=1;labelBackgroundColor=none;startArrow=none;startFill=0;startSize=5;endArrow=none;endFill=1;endSize=5;jettySize=auto;orthogonalLoop=1;strokeColor=#B3B3B3;strokeWidth=1;fontFamily=Verdana;fontSize=16;entryX=0;entryY=0.5;entryDx=0;entryDy=0;" edge="1" parent="1" source="onqhrKJT73XVAQYC2L4G-25" target="onqhrKJT73XVAQYC2L4G-22">
          <mxGeometry relative="1" as="geometry">
            <mxPoint x="730" y="321.2844036697247" as="targetPoint" />
            <mxPoint x="600" y="323" as="sourcePoint" />
          </mxGeometry>
        </mxCell>
        <mxCell id="2c924340bb9dbf6c-78" value="" style="edgeStyle=none;rounded=1;html=1;labelBackgroundColor=none;startArrow=none;startFill=0;startSize=5;endArrow=classicThin;endFill=1;endSize=5;jettySize=auto;orthogonalLoop=1;strokeColor=#B3B3B3;strokeWidth=1;fontFamily=Verdana;fontSize=12" edge="1" parent="1" source="2c924340bb9dbf6c-7" target="2c924340bb9dbf6c-59">
          <mxGeometry relative="1" as="geometry" />
        </mxCell>
        <mxCell id="PTvraBtkrrb_nzz7JV9i-14" style="rounded=0;orthogonalLoop=1;jettySize=auto;html=1;exitX=0.5;exitY=1;exitDx=0;exitDy=0;" edge="1" parent="1" source="onqhrKJT73XVAQYC2L4G-12">
          <mxGeometry relative="1" as="geometry">
            <mxPoint x="-130" y="290" as="targetPoint" />
          </mxGeometry>
        </mxCell>
        <mxCell id="onqhrKJT73XVAQYC2L4G-12" value="-Publish encrypted Content to CDN&amp;nbsp;&lt;br&gt;-return result&lt;div&gt;-shorten URL&lt;span style=&quot;background-color: transparent;&quot;&gt;&amp;nbsp;to fit txt size limitations (plus further obscure)&lt;br&gt;-store in json format&lt;br&gt;-encrypt&lt;br&gt;-Publish into DNS&lt;br&gt;-Publish Reference in SocialTap as source Public Key tagging their network of public keys , followed by DNS TXT ref&amp;nbsp;&amp;nbsp;&lt;/span&gt;&lt;/div&gt;" style="whiteSpace=wrap;html=1;rounded=0;shadow=1;comic=0;labelBackgroundColor=none;strokeWidth=2;fontFamily=Verdana;fontSize=12;align=center;arcSize=50;fillColor=#dae8fc;strokeColor=#6c8ebf;" vertex="1" parent="1">
          <mxGeometry x="-470" y="-60" width="390" height="190" as="geometry" />
        </mxCell>
        <mxCell id="onqhrKJT73XVAQYC2L4G-13" value="" style="edgeStyle=none;rounded=1;html=1;labelBackgroundColor=none;startArrow=none;startFill=0;startSize=5;endArrow=classicThin;endFill=1;endSize=5;jettySize=auto;orthogonalLoop=1;strokeColor=#B3B3B3;strokeWidth=1;fontFamily=Verdana;fontSize=12;entryX=1.004;entryY=0.208;entryDx=0;entryDy=0;entryPerimeter=0;" edge="1" parent="1" source="2c924340bb9dbf6c-4" target="onqhrKJT73XVAQYC2L4G-12">
          <mxGeometry relative="1" as="geometry">
            <mxPoint x="370" y="-90" as="sourcePoint" />
            <mxPoint x="450" y="-89" as="targetPoint" />
          </mxGeometry>
        </mxCell>
        <mxCell id="onqhrKJT73XVAQYC2L4G-26" value="" style="edgeStyle=none;rounded=1;html=1;labelBackgroundColor=none;startArrow=none;startFill=0;startSize=5;endArrow=none;endFill=1;endSize=5;jettySize=auto;orthogonalLoop=1;strokeColor=#B3B3B3;strokeWidth=1;fontFamily=Verdana;fontSize=16;entryX=0.532;entryY=0.001;entryDx=0;entryDy=0;entryPerimeter=0;exitX=1.016;exitY=0.601;exitDx=0;exitDy=0;exitPerimeter=0;fontStyle=1" edge="1" parent="1" source="2c924340bb9dbf6c-4" target="onqhrKJT73XVAQYC2L4G-25">
          <mxGeometry relative="1" as="geometry">
            <mxPoint x="650" y="318" as="sourcePoint" />
            <mxPoint x="940" y="318" as="targetPoint" />
          </mxGeometry>
        </mxCell>
        <mxCell id="onqhrKJT73XVAQYC2L4G-30" value="revoke/reissue token at friendship changes/rotate&lt;br&gt;on schedule ?" style="ellipse;whiteSpace=wrap;html=1;rounded=1;shadow=1;comic=0;labelBackgroundColor=none;strokeWidth=2;fontFamily=Verdana;fontSize=12;align=center;fillColor=#dae8fc;strokeColor=#6c8ebf;fontStyle=0" vertex="1" parent="1">
          <mxGeometry x="-500" y="-600" width="180" height="110" as="geometry" />
        </mxCell>
        <mxCell id="onqhrKJT73XVAQYC2L4G-35" value="&lt;font style=&quot;font-size: 22px;&quot;&gt;.TLD.&lt;/font&gt;" style="ellipse;whiteSpace=wrap;html=1;rounded=1;shadow=1;comic=0;labelBackgroundColor=none;strokeWidth=2;fontFamily=Verdana;fontSize=12;align=center;fillColor=#fff2cc;strokeColor=#d6b656;" vertex="1" parent="1">
          <mxGeometry x="1580" y="260" width="270" height="125" as="geometry" />
        </mxCell>
        <mxCell id="onqhrKJT73XVAQYC2L4G-36" value="" style="edgeStyle=none;rounded=1;html=1;labelBackgroundColor=none;startArrow=none;startFill=0;startSize=5;endArrow=none;endFill=1;endSize=5;jettySize=auto;orthogonalLoop=1;strokeColor=#B3B3B3;strokeWidth=1;fontFamily=Verdana;fontSize=12;entryX=0;entryY=0.5;entryDx=0;entryDy=0;" edge="1" parent="1" source="onqhrKJT73XVAQYC2L4G-22" target="onqhrKJT73XVAQYC2L4G-35">
          <mxGeometry relative="1" as="geometry">
            <mxPoint x="1060" y="316.97" as="sourcePoint" />
            <mxPoint x="1150" y="316.97" as="targetPoint" />
          </mxGeometry>
        </mxCell>
        <mxCell id="onqhrKJT73XVAQYC2L4G-37" value="Root Domain" style="swimlane;labelBackgroundColor=default;fontFamily=Helvetica;fontStyle=0;fontSize=18;" vertex="1" parent="1">
          <mxGeometry x="730" y="-70" width="700" height="230" as="geometry" />
        </mxCell>
        <mxCell id="onqhrKJT73XVAQYC2L4G-38" value="&lt;span style=&quot;&quot;&gt;&lt;font style=&quot;font-size: 16px;&quot;&gt;&lt;br&gt;&lt;/font&gt;&lt;/span&gt;&lt;div&gt;&lt;div style=&quot;forced-color-adjust: none; color: rgb(0, 0, 0); font-family: Helvetica; font-style: normal; font-variant-ligatures: normal; font-variant-caps: normal; font-weight: 400; letter-spacing: normal; orphans: 2; text-align: center; text-indent: 0px; text-transform: none; widows: 2; word-spacing: 0px; -webkit-text-stroke-width: 0px; white-space: normal; text-decoration-thickness: initial; text-decoration-style: initial; text-decoration-color: initial;&quot;&gt;&lt;font style=&quot;font-size: 16px;&quot;&gt;Currently referred to as a SocialTap&lt;br style=&quot;forced-color-adjust: none;&quot;&gt;&lt;br style=&quot;forced-color-adjust: none;&quot;&gt;The Root Domain is intended for Business.&amp;nbsp; A Root Domain host may customize functionality of their app but must utilize the root structure., offering different syles, perspectives, brands???, to&amp;nbsp;&lt;/font&gt;&lt;/div&gt;&lt;div style=&quot;forced-color-adjust: none; color: rgb(0, 0, 0); font-family: Helvetica; font-style: normal; font-variant-ligatures: normal; font-variant-caps: normal; font-weight: 400; letter-spacing: normal; orphans: 2; text-align: center; text-indent: 0px; text-transform: none; widows: 2; word-spacing: 0px; -webkit-text-stroke-width: 0px; white-space: normal; text-decoration-thickness: initial; text-decoration-style: initial; text-decoration-color: initial;&quot;&gt;&lt;br&gt;&lt;/div&gt;&lt;div style=&quot;forced-color-adjust: none; color: rgb(0, 0, 0); font-family: Helvetica; font-style: normal; font-variant-ligatures: normal; font-variant-caps: normal; font-weight: 400; letter-spacing: normal; orphans: 2; text-align: center; text-indent: 0px; text-transform: none; widows: 2; word-spacing: 0px; -webkit-text-stroke-width: 0px; white-space: normal; text-decoration-thickness: initial; text-decoration-style: initial; text-decoration-color: initial;&quot;&gt;&lt;span style=&quot;float: none; color: rgb(0, 0, 0); display: inline !important;&quot;&gt;&lt;font style=&quot;font-size: 16px;&quot;&gt;The Root domain is used as a feeder service to which users can subscribe. (free or paid? up to the user? to select and up to generosity of others to provide access)&amp;nbsp;&lt;/font&gt;&lt;/span&gt;&lt;/div&gt;&lt;/div&gt;" style="text;whiteSpace=wrap;html=1;labelBackgroundColor=none;" vertex="1" parent="onqhrKJT73XVAQYC2L4G-37">
          <mxGeometry y="20" width="700" height="220" as="geometry" />
        </mxCell>
        <mxCell id="onqhrKJT73XVAQYC2L4G-39" value="DNSOpenSocial" style="text;html=1;align=center;verticalAlign=middle;resizable=0;points=[];autosize=1;strokeColor=none;fillColor=none;fontFamily=Verdana;fontStyle=1;fontSize=36;" vertex="1" parent="1">
          <mxGeometry x="940" y="-540" width="300" height="60" as="geometry" />
        </mxCell>
        <mxCell id="onqhrKJT73XVAQYC2L4G-41" value="" style="edgeStyle=none;rounded=1;html=1;labelBackgroundColor=none;startArrow=none;startFill=0;startSize=5;endArrow=classicThin;endFill=1;endSize=5;jettySize=auto;orthogonalLoop=1;strokeColor=#B3B3B3;strokeWidth=1;fontFamily=Verdana;fontSize=12;entryX=0;entryY=0.5;entryDx=0;entryDy=0;" edge="1" parent="1" target="onqhrKJT73XVAQYC2L4G-22">
          <mxGeometry relative="1" as="geometry">
            <mxPoint x="1060" y="316.97" as="sourcePoint" />
            <mxPoint x="1180" y="318" as="targetPoint" />
          </mxGeometry>
        </mxCell>
        <mxCell id="onqhrKJT73XVAQYC2L4G-22" value=".domainRoot&lt;br&gt;(socialtap)" style="ellipse;whiteSpace=wrap;html=1;rounded=1;shadow=1;comic=0;labelBackgroundColor=none;strokeWidth=2;fontFamily=Verdana;fontSize=16;align=center;fillColor=#f8cecc;strokeColor=#b85450;" vertex="1" parent="1">
          <mxGeometry x="950" y="282.5" width="300" height="80" as="geometry" />
        </mxCell>
        <mxCell id="onqhrKJT73XVAQYC2L4G-43" value="Project Goals" style="swimlane;labelBackgroundColor=default;fontFamily=Helvetica;fontStyle=0;fontSize=18;" vertex="1" parent="1">
          <mxGeometry x="730" y="-490" width="710" height="400" as="geometry" />
        </mxCell>
        <mxCell id="onqhrKJT73XVAQYC2L4G-44" value="&lt;div&gt;&lt;font style=&quot;font-size: 15px;&quot;&gt;&lt;span style=&quot;background-color: transparent;&quot;&gt;Define one Open Social Platform and Structure&amp;nbsp;&lt;/span&gt;&lt;br&gt;&lt;/font&gt;&lt;/div&gt;&lt;div&gt;&lt;font style=&quot;font-size: 15px;&quot;&gt;&lt;br&gt;&lt;/font&gt;&lt;/div&gt;&lt;div&gt;&lt;font style=&quot;font-size: 15px;&quot;&gt;Make Social Self Manageable&amp;nbsp;&lt;/font&gt;&lt;/div&gt;&lt;div&gt;&lt;font style=&quot;font-size: 15px;&quot;&gt;&lt;br&gt;&lt;/font&gt;&lt;/div&gt;&lt;div&gt;&lt;font style=&quot;font-size: 15px;&quot;&gt;Make Social Safe - SocialTap Service only ever sees encrypted data&lt;/font&gt;&lt;/div&gt;&lt;div&gt;&lt;font style=&quot;font-size: 15px;&quot;&gt;&lt;br&gt;&lt;/font&gt;&lt;/div&gt;&lt;div&gt;&lt;font style=&quot;font-size: 15px;&quot;&gt;Give users more options&lt;br&gt;&lt;br&gt;Keep User Experience SIMPLE (rename things to be more easily understood i.e. pubKey privKey to something more relatable)&amp;nbsp;&lt;br&gt;&lt;br&gt;platforms can be managed via webapp, desktop app, phone app&amp;nbsp;&lt;br&gt;&lt;br&gt;entire profile is easily exportable, downloadable, and then portable to another SocialTap service&amp;nbsp;&lt;br&gt;&lt;br&gt;User info is always encrypted from the Tap provider.&lt;/font&gt;&lt;/div&gt;&lt;div&gt;&lt;span style=&quot;background-color: transparent;&quot;&gt;&lt;font style=&quot;font-size: 15px;&quot;&gt;&lt;br&gt;&lt;/font&gt;&lt;/span&gt;&lt;/div&gt;&lt;div&gt;&lt;br&gt;&lt;/div&gt;" style="text;whiteSpace=wrap;html=1;labelBackgroundColor=none;align=center;" vertex="1" parent="onqhrKJT73XVAQYC2L4G-43">
          <mxGeometry x="10" y="30" width="700" height="370" as="geometry" />
        </mxCell>
        <mxCell id="2c924340bb9dbf6c-58" value="&lt;div&gt;Potential benefits of implementation via dns&lt;/div&gt;&lt;div&gt;&lt;br&gt;&lt;/div&gt;records, queried, stored and cached only as needed&amp;nbsp;&lt;div&gt;&lt;br&gt;&lt;/div&gt;&lt;div&gt;Ease to implement functions such as cleaning up old records&amp;nbsp;&lt;/div&gt;&lt;div&gt;&lt;div&gt;&lt;br&gt;&lt;/div&gt;&lt;div&gt;&lt;br&gt;&lt;/div&gt;&lt;/div&gt;" style="whiteSpace=wrap;html=1;rounded=1;shadow=1;comic=0;labelBackgroundColor=none;strokeWidth=2;fontFamily=Verdana;fontSize=12;align=center;arcSize=50;" vertex="1" parent="1">
          <mxGeometry x="1525" y="80" width="380" height="160" as="geometry" />
        </mxCell>
        <mxCell id="PTvraBtkrrb_nzz7JV9i-1" value="" style="edgeStyle=none;rounded=1;html=1;labelBackgroundColor=none;startArrow=none;startFill=0;startSize=5;endArrow=none;endFill=1;endSize=5;jettySize=auto;orthogonalLoop=1;strokeColor=#B3B3B3;strokeWidth=1;fontFamily=Verdana;fontSize=12;exitX=0;exitY=0.5;exitDx=0;exitDy=0;entryX=0.991;entryY=0.392;entryDx=0;entryDy=0;entryPerimeter=0;" edge="1" parent="1" target="PTvraBtkrrb_nzz7JV9i-2">
          <mxGeometry relative="1" as="geometry">
            <mxPoint x="-20" y="321.5" as="targetPoint" />
            <mxPoint x="110.00000000000364" y="323.4999999999998" as="sourcePoint" />
          </mxGeometry>
        </mxCell>
        <mxCell id="PTvraBtkrrb_nzz7JV9i-2" value="alphanum16" style="ellipse;whiteSpace=wrap;html=1;rounded=1;shadow=1;comic=0;labelBackgroundColor=none;strokeWidth=2;fontFamily=Verdana;fontSize=12;align=center;fillColor=#dae8fc;strokeColor=#6c8ebf;" vertex="1" parent="1">
          <mxGeometry x="-220" y="290" width="200" height="82" as="geometry" />
        </mxCell>
        <mxCell id="PTvraBtkrrb_nzz7JV9i-3" value="&lt;span style=&quot;color: rgb(0, 0, 0); font-family: Verdana; font-size: 12px; font-style: normal; font-variant-ligatures: normal; font-variant-caps: normal; font-weight: 400; letter-spacing: normal; orphans: 2; text-align: center; text-indent: 0px; text-transform: none; widows: 2; word-spacing: 0px; -webkit-text-stroke-width: 0px; white-space: normal; background-color: rgb(251, 251, 251); text-decoration-thickness: initial; text-decoration-style: initial; text-decoration-color: initial; display: inline !important; float: none;&quot;&gt;16digit alphanumeric TXT record&lt;/span&gt;&lt;br style=&quot;forced-color-adjust: none; color: rgb(0, 0, 0); font-family: Verdana; font-size: 12px; font-style: normal; font-variant-ligatures: normal; font-variant-caps: normal; font-weight: 400; letter-spacing: normal; orphans: 2; text-align: center; text-indent: 0px; text-transform: none; widows: 2; word-spacing: 0px; -webkit-text-stroke-width: 0px; white-space: normal; background-color: rgb(251, 251, 251); text-decoration-thickness: initial; text-decoration-style: initial; text-decoration-color: initial;&quot;&gt;&lt;span style=&quot;color: rgb(0, 0, 0); font-family: Verdana; font-size: 12px; font-style: normal; font-variant-ligatures: normal; font-variant-caps: normal; font-weight: 400; letter-spacing: normal; orphans: 2; text-align: center; text-indent: 0px; text-transform: none; widows: 2; word-spacing: 0px; -webkit-text-stroke-width: 0px; white-space: normal; background-color: rgb(251, 251, 251); text-decoration-thickness: initial; text-decoration-style: initial; text-decoration-color: initial; display: inline !important; float: none;&quot;&gt;Encrypted json shortened URL to item&lt;/span&gt;" style="text;whiteSpace=wrap;html=1;" vertex="1" parent="1">
          <mxGeometry x="-240" y="397" width="260" height="50" as="geometry" />
        </mxCell>
        <mxCell id="PTvraBtkrrb_nzz7JV9i-4" style="edgeStyle=orthogonalEdgeStyle;rounded=0;orthogonalLoop=1;jettySize=auto;html=1;exitX=0.5;exitY=1;exitDx=0;exitDy=0;entryX=0.442;entryY=0.009;entryDx=0;entryDy=0;entryPerimeter=0;" edge="1" parent="1" source="2c924340bb9dbf6c-4" target="2c924340bb9dbf6c-3">
          <mxGeometry relative="1" as="geometry">
            <Array as="points">
              <mxPoint x="190" y="203" />
            </Array>
          </mxGeometry>
        </mxCell>
        <mxCell id="PTvraBtkrrb_nzz7JV9i-5" value="User can selects/controls which services they want to participate in based upon records they publish.&amp;nbsp;" style="whiteSpace=wrap;html=1;fillColor=#dae8fc;strokeColor=#6c8ebf;" vertex="1" parent="1">
          <mxGeometry x="85" y="55" width="210" height="60" as="geometry" />
        </mxCell>
        <mxCell id="PTvraBtkrrb_nzz7JV9i-7" value="" style="edgeStyle=none;rounded=1;html=1;labelBackgroundColor=none;startArrow=none;startFill=0;startSize=5;endArrow=none;endFill=1;endSize=5;jettySize=auto;orthogonalLoop=1;strokeColor=#B3B3B3;strokeWidth=1;fontFamily=Verdana;fontSize=16;entryX=0;entryY=0.5;entryDx=0;entryDy=0;" edge="1" parent="1" target="onqhrKJT73XVAQYC2L4G-25">
          <mxGeometry relative="1" as="geometry">
            <mxPoint x="950" y="323" as="targetPoint" />
            <mxPoint x="600" y="323" as="sourcePoint" />
          </mxGeometry>
        </mxCell>
        <mxCell id="onqhrKJT73XVAQYC2L4G-25" value="&amp;nbsp;.username&lt;br&gt;(User Registered)" style="ellipse;whiteSpace=wrap;html=1;rounded=1;shadow=1;comic=0;labelBackgroundColor=none;strokeWidth=2;fontFamily=Verdana;fontSize=16;align=center;fillColor=#dae8fc;strokeColor=#6c8ebf;" vertex="1" parent="1">
          <mxGeometry x="440" y="282.5" width="250" height="80" as="geometry" />
        </mxCell>
        <mxCell id="2c924340bb9dbf6c-13" value="&lt;pre style=&quot;font-family: var(--font-stack--monospace); font-size: var(--code-font-size); margin-top: 0px; margin-bottom: 0px; padding: 0.625rem 0.875rem; overflow: auto; line-height: 1.5; text-align: start;&quot; id=&quot;codecell0&quot;&gt;&lt;font style=&quot;color: rgb(0, 0, 0);&quot;&gt;Include License in Development &lt;br&gt;&lt;br&gt;MIT License&lt;br&gt;&lt;br&gt;Copyright (c) 2024 Ilya&lt;br&gt;&lt;br&gt;Permission is hereby granted, free of charge, to any person obtaining a copy&lt;br&gt;of this software and associated documentation files (the &quot;Software&quot;), to deal&lt;br&gt;in the Software without restriction, including without limitation the rights&lt;br&gt;to use, copy, modify, merge, publish, distribute, sublicense, and/or sell&lt;br&gt;copies of the Software, and to permit persons to whom the Software is&lt;br&gt;furnished to do so, subject to the following conditions:&lt;br&gt;&lt;br&gt;The above copyright notice and this permission notice shall be included in all&lt;br&gt;copies or substantial portions of the Software.&lt;br&gt;&lt;br&gt;THE SOFTWARE IS PROVIDED &quot;AS IS&quot;, WITHOUT WARRANTY OF ANY KIND, EXPRESS OR&lt;br&gt;IMPLIED, INCLUDING BUT NOT LIMITED TO THE WARRANTIES OF MERCHANTABILITY,&lt;br&gt;FITNESS FOR A PARTICULAR PURPOSE AND NONINFRINGEMENT. IN NO EVENT SHALL THE&lt;br&gt;AUTHORS OR COPYRIGHT HOLDERS BE LIABLE FOR ANY CLAIM, DAMAGES OR OTHER&lt;br&gt;LIABILITY, WHETHER IN AN ACTION OF CONTRACT, TORT OR OTHERWISE, ARISING FROM,&lt;br&gt;OUT OF OR IN CONNECTION WITH THE SOFTWARE OR THE USE OR OTHER DEALINGS IN THE&lt;br&gt;SOFTWARE.&lt;/font&gt;&lt;/pre&gt;" style="whiteSpace=wrap;html=1;rounded=0;shadow=1;comic=0;labelBackgroundColor=none;strokeWidth=2;fontFamily=Verdana;fontSize=12;align=center;arcSize=50;fillColor=#d5e8d4;strokeColor=#82b366;" vertex="1" parent="1">
          <mxGeometry x="1460" y="-445" width="685" height="500" as="geometry" />
        </mxCell>
        <mxCell id="onqhrKJT73XVAQYC2L4G-40" value="@_at or define new&amp;nbsp;social proto?" style="ellipse;whiteSpace=wrap;html=1;rounded=1;shadow=1;comic=0;labelBackgroundColor=none;strokeWidth=2;fontFamily=Verdana;fontSize=12;align=center;" vertex="1" parent="1">
          <mxGeometry x="610" y="610" width="210" height="110" as="geometry" />
        </mxCell>
        <mxCell id="PTvraBtkrrb_nzz7JV9i-10" value="" style="group" connectable="0" vertex="1" parent="1">
          <mxGeometry x="100" y="200" width="178.31775700934577" height="363" as="geometry" />
        </mxCell>
        <mxCell id="2c924340bb9dbf6c-3" value="" style="ellipse;whiteSpace=wrap;html=1;rounded=1;shadow=1;comic=0;labelBackgroundColor=none;strokeWidth=2;fontFamily=Verdana;fontSize=12;align=center;fillColor=#dae8fc;strokeColor=#6c8ebf;" vertex="1" parent="PTvraBtkrrb_nzz7JV9i-10">
          <mxGeometry width="178.3177570093458" height="363" as="geometry" />
        </mxCell>
        <mxCell id="2c924340bb9dbf6c-11" value="&lt;span&gt;.LFtxt&lt;/span&gt;" style="whiteSpace=wrap;html=1;rounded=1;shadow=1;comic=0;labelBackgroundColor=none;strokeWidth=2;fontFamily=Verdana;fontSize=12;align=center;arcSize=50;" vertex="1" parent="PTvraBtkrrb_nzz7JV9i-10">
          <mxGeometry x="39.62616822429908" y="175" width="99.06542056074767" height="20" as="geometry" />
        </mxCell>
        <mxCell id="2c924340bb9dbf6c-14" value="&lt;span&gt;.SFvid&lt;/span&gt;" style="whiteSpace=wrap;html=1;rounded=1;shadow=1;comic=0;labelBackgroundColor=none;strokeWidth=2;fontFamily=Verdana;fontSize=12;align=center;arcSize=50;" vertex="1" parent="PTvraBtkrrb_nzz7JV9i-10">
          <mxGeometry x="39.62616822429908" y="145" width="99.06542056074767" height="20" as="geometry" />
        </mxCell>
        <mxCell id="2c924340bb9dbf6c-15" value=".LFvid" style="whiteSpace=wrap;html=1;rounded=1;shadow=1;comic=0;labelBackgroundColor=none;strokeWidth=2;fontFamily=Verdana;fontSize=12;align=center;arcSize=50;" vertex="1" parent="PTvraBtkrrb_nzz7JV9i-10">
          <mxGeometry x="39.62616822429908" y="115" width="99.06542056074767" height="20" as="geometry" />
        </mxCell>
        <mxCell id="2c924340bb9dbf6c-16" value=".img" style="whiteSpace=wrap;html=1;rounded=1;shadow=1;comic=0;labelBackgroundColor=none;strokeWidth=2;fontFamily=Verdana;fontSize=12;align=center;arcSize=50;" vertex="1" parent="PTvraBtkrrb_nzz7JV9i-10">
          <mxGeometry x="39.62616822429908" y="80" width="99.06542056074767" height="20" as="geometry" />
        </mxCell>
        <mxCell id="2c924340bb9dbf6c-17" value="&lt;span&gt;.ext^n&lt;/span&gt;" style="whiteSpace=wrap;html=1;rounded=1;shadow=1;comic=0;labelBackgroundColor=none;strokeWidth=2;fontFamily=Verdana;fontSize=12;align=center;arcSize=50;" vertex="1" parent="PTvraBtkrrb_nzz7JV9i-10">
          <mxGeometry x="39.62616822429908" y="298" width="99.06542056074767" height="20" as="geometry" />
        </mxCell>
        <mxCell id="2c924340bb9dbf6c-19" value=".SFtxt" style="whiteSpace=wrap;html=1;rounded=1;shadow=1;comic=0;labelBackgroundColor=none;strokeWidth=2;fontFamily=Verdana;fontSize=12;align=center;arcSize=50;" vertex="1" parent="PTvraBtkrrb_nzz7JV9i-10">
          <mxGeometry x="39.62616822429908" y="205" width="99.06542056074767" height="20" as="geometry" />
        </mxCell>
        <mxCell id="onqhrKJT73XVAQYC2L4G-48" value=".fShare" style="whiteSpace=wrap;html=1;rounded=1;shadow=1;comic=0;labelBackgroundColor=none;strokeWidth=2;fontFamily=Verdana;fontSize=12;align=center;arcSize=50;" vertex="1" parent="PTvraBtkrrb_nzz7JV9i-10">
          <mxGeometry x="39.62616822429908" y="268" width="99.06542056074767" height="20" as="geometry" />
        </mxCell>
        <mxCell id="onqhrKJT73XVAQYC2L4G-55" value="&lt;span style=&quot;color: rgb(0, 0, 0); font-family: Helvetica; font-size: 12px; font-style: normal; font-variant-ligatures: normal; font-variant-caps: normal; font-weight: 400; letter-spacing: normal; orphans: 2; text-align: center; text-indent: 0px; text-transform: none; widows: 2; word-spacing: 0px; -webkit-text-stroke-width: 0px; white-space: normal; background-color: rgb(251, 251, 251); text-decoration-thickness: initial; text-decoration-style: initial; text-decoration-color: initial; display: inline !important; float: none;&quot;&gt;.postType&lt;/span&gt;" style="text;whiteSpace=wrap;html=1;" vertex="1" parent="PTvraBtkrrb_nzz7JV9i-10">
          <mxGeometry x="64.39252336448598" y="33" width="49.532710280373834" height="30" as="geometry" />
        </mxCell>
        <mxCell id="PTvraBtkrrb_nzz7JV9i-6" value=".market" style="whiteSpace=wrap;html=1;rounded=1;shadow=1;comic=0;labelBackgroundColor=none;strokeWidth=2;fontFamily=Verdana;fontSize=12;align=center;arcSize=50;" vertex="1" parent="PTvraBtkrrb_nzz7JV9i-10">
          <mxGeometry x="39.62616822429908" y="236.5" width="99.06542056074767" height="20" as="geometry" />
        </mxCell>
        <mxCell id="PTvraBtkrrb_nzz7JV9i-15" value="&lt;span&gt;NFC share?&lt;/span&gt;" style="whiteSpace=wrap;html=1;rounded=1;shadow=1;comic=0;labelBackgroundColor=none;strokeWidth=2;fontFamily=Verdana;fontSize=12;align=center;arcSize=50;" vertex="1" parent="1">
          <mxGeometry x="-450" y="-400" width="110" height="53.27" as="geometry" />
        </mxCell>
        <mxCell id="PTvraBtkrrb_nzz7JV9i-16" value="" style="edgeStyle=none;rounded=1;html=1;labelBackgroundColor=none;startArrow=none;startFill=0;startSize=5;endArrow=classicThin;endFill=1;endSize=5;jettySize=auto;orthogonalLoop=1;strokeColor=#B3B3B3;strokeWidth=1;fontFamily=Verdana;fontSize=12;" edge="1" parent="1" source="onqhrKJT73XVAQYC2L4G-19" target="PTvraBtkrrb_nzz7JV9i-15">
          <mxGeometry relative="1" as="geometry">
            <mxPoint x="-153.75556585809045" y="-260.0012951083079" as="sourcePoint" />
          </mxGeometry>
        </mxCell>
        <mxCell id="PTvraBtkrrb_nzz7JV9i-18" value="" style="whiteSpace=wrap;html=1;rounded=1;shadow=1;comic=0;labelBackgroundColor=none;strokeWidth=2;fontFamily=Verdana;fontSize=12;align=center;arcSize=50;" vertex="1" parent="1">
          <mxGeometry x="-490" y="-180" width="150" height="53.27" as="geometry" />
        </mxCell>
        <mxCell id="PTvraBtkrrb_nzz7JV9i-19" value="" style="edgeStyle=none;rounded=1;html=1;labelBackgroundColor=none;startArrow=none;startFill=0;startSize=5;endArrow=classicThin;endFill=1;endSize=5;jettySize=auto;orthogonalLoop=1;strokeColor=#B3B3B3;strokeWidth=1;fontFamily=Verdana;fontSize=12;exitX=0.684;exitY=0.027;exitDx=0;exitDy=0;exitPerimeter=0;" edge="1" parent="1" source="onqhrKJT73XVAQYC2L4G-19" target="PTvraBtkrrb_nzz7JV9i-18">
          <mxGeometry relative="1" as="geometry">
            <mxPoint x="-23.75556585809045" y="-270.0012951083079" as="sourcePoint" />
          </mxGeometry>
        </mxCell>
        <mxCell id="PTvraBtkrrb_nzz7JV9i-20" value="" style="edgeStyle=none;rounded=1;html=1;labelBackgroundColor=none;startArrow=none;startFill=0;startSize=5;endArrow=classicThin;endFill=1;endSize=5;jettySize=auto;orthogonalLoop=1;strokeColor=#B3B3B3;strokeWidth=1;fontFamily=Verdana;fontSize=12;exitX=0.068;exitY=0.245;exitDx=0;exitDy=0;exitPerimeter=0;entryX=1.011;entryY=0.619;entryDx=0;entryDy=0;entryPerimeter=0;" edge="1" parent="1" source="2c924340bb9dbf6c-4" target="onqhrKJT73XVAQYC2L4G-19">
          <mxGeometry relative="1" as="geometry">
            <mxPoint x="138" y="-151" as="sourcePoint" />
            <mxPoint x="-60" y="-140" as="targetPoint" />
            <Array as="points" />
          </mxGeometry>
        </mxCell>
        <mxCell id="onqhrKJT73XVAQYC2L4G-19" value="User Shares Keys with Friends&amp;nbsp;" style="ellipse;whiteSpace=wrap;html=1;rounded=1;shadow=1;comic=0;labelBackgroundColor=none;strokeWidth=2;fontFamily=Verdana;fontSize=12;align=center;fillColor=#dae8fc;strokeColor=#6c8ebf;" vertex="1" parent="1">
          <mxGeometry x="-220" y="-313.27" width="200" height="113.27" as="geometry" />
        </mxCell>
        <mxCell id="PTvraBtkrrb_nzz7JV9i-21" value="&lt;span&gt;Share via Chat ?&lt;br&gt;&lt;/span&gt;" style="whiteSpace=wrap;html=1;rounded=1;shadow=1;comic=0;labelBackgroundColor=none;strokeWidth=2;fontFamily=Verdana;fontSize=12;align=center;arcSize=50;" vertex="1" parent="1">
          <mxGeometry x="-450" y="-326.73" width="110" height="53.27" as="geometry" />
        </mxCell>
        <mxCell id="PTvraBtkrrb_nzz7JV9i-22" value="" style="edgeStyle=none;rounded=1;html=1;labelBackgroundColor=none;startArrow=none;startFill=0;startSize=5;endArrow=classicThin;endFill=1;endSize=5;jettySize=auto;orthogonalLoop=1;strokeColor=#B3B3B3;strokeWidth=1;fontFamily=Verdana;fontSize=12;exitX=0;exitY=0.324;exitDx=0;exitDy=0;exitPerimeter=0;entryX=1;entryY=0.5;entryDx=0;entryDy=0;" edge="1" parent="1" source="onqhrKJT73XVAQYC2L4G-19" target="PTvraBtkrrb_nzz7JV9i-21">
          <mxGeometry relative="1" as="geometry">
            <mxPoint x="-91" y="-217" as="sourcePoint" />
            <mxPoint x="-320" y="-300" as="targetPoint" />
          </mxGeometry>
        </mxCell>
        <mxCell id="PTvraBtkrrb_nzz7JV9i-23" value="establish key at friend req ?&amp;nbsp;" style="whiteSpace=wrap;html=1;rounded=1;shadow=1;comic=0;labelBackgroundColor=none;strokeWidth=2;fontFamily=Verdana;fontSize=12;align=center;arcSize=50;" vertex="1" parent="1">
          <mxGeometry x="-450" y="-253.26999999999998" width="110" height="53.27" as="geometry" />
        </mxCell>
        <mxCell id="PTvraBtkrrb_nzz7JV9i-24" value="" style="edgeStyle=none;rounded=1;html=1;labelBackgroundColor=none;startArrow=none;startFill=0;startSize=5;endArrow=classicThin;endFill=1;endSize=5;jettySize=auto;orthogonalLoop=1;strokeColor=#B3B3B3;strokeWidth=1;fontFamily=Verdana;fontSize=12;exitX=0;exitY=0.5;exitDx=0;exitDy=0;entryX=1;entryY=0.25;entryDx=0;entryDy=0;" edge="1" parent="1" source="onqhrKJT73XVAQYC2L4G-19" target="PTvraBtkrrb_nzz7JV9i-23">
          <mxGeometry relative="1" as="geometry">
            <mxPoint x="-38" y="-28" as="sourcePoint" />
          </mxGeometry>
        </mxCell>
        <mxCell id="PTvraBtkrrb_nzz7JV9i-25" style="rounded=0;orthogonalLoop=1;jettySize=auto;html=1;exitX=1;exitY=1;exitDx=0;exitDy=0;entryX=0.219;entryY=0.084;entryDx=0;entryDy=0;entryPerimeter=0;" edge="1" parent="1" source="onqhrKJT73XVAQYC2L4G-30" target="onqhrKJT73XVAQYC2L4G-19">
          <mxGeometry relative="1" as="geometry">
            <Array as="points">
              <mxPoint x="-270" y="-370" />
            </Array>
          </mxGeometry>
        </mxCell>
        <mxCell id="Grjk-cGU277tF-0ASjWC-1" value="Pluggable&lt;div&gt;Key exchange&lt;/div&gt;" style="text;html=1;align=center;verticalAlign=middle;resizable=0;points=[];autosize=1;strokeColor=none;fillColor=none;fontSize=16;" vertex="1" parent="1">
          <mxGeometry x="-470" y="-178.37" width="120" height="50" as="geometry" />
        </mxCell>
        <mxCell id="Grjk-cGU277tF-0ASjWC-2" value="" style="edgeStyle=none;rounded=1;html=1;labelBackgroundColor=none;startArrow=none;startFill=0;startSize=5;endArrow=classicThin;endFill=1;endSize=5;jettySize=auto;orthogonalLoop=1;strokeColor=#B3B3B3;strokeWidth=1;fontFamily=Verdana;fontSize=12;" edge="1" parent="1" target="2c924340bb9dbf6c-2">
          <mxGeometry relative="1" as="geometry">
            <mxPoint x="150" y="-360" as="sourcePoint" />
            <mxPoint x="89" y="-660" as="targetPoint" />
          </mxGeometry>
        </mxCell>
        <mxCell id="2c924340bb9dbf6c-2" value="App UI features" style="ellipse;whiteSpace=wrap;html=1;rounded=1;shadow=1;comic=0;labelBackgroundColor=none;strokeWidth=2;fontFamily=Verdana;fontSize=12;align=center;fillColor=#dae8fc;strokeColor=#6c8ebf;" vertex="1" parent="1">
          <mxGeometry x="55" y="-426.73" width="270" height="80" as="geometry" />
        </mxCell>
        <mxCell id="6sE6SQZJxXk12uiDZTbc-1" value="Further Define Functionality of SocialTap" style="whiteSpace=wrap;html=1;rounded=1;shadow=1;comic=0;labelBackgroundColor=none;strokeWidth=2;fontFamily=Verdana;fontSize=12;align=center;arcSize=50;" vertex="1" parent="1">
          <mxGeometry x="530" y="1090" width="220" height="70" as="geometry" />
        </mxCell>
        <mxCell id="6sE6SQZJxXk12uiDZTbc-2" value="Better Define Project Goals" style="whiteSpace=wrap;html=1;rounded=1;shadow=1;comic=0;labelBackgroundColor=none;strokeWidth=2;fontFamily=Verdana;fontSize=12;align=center;arcSize=50;" vertex="1" parent="1">
          <mxGeometry x="860" y="680" width="220" height="70" as="geometry" />
        </mxCell>
      </root>
    </mxGraphModel>
  </diagram>
</mxfile>
